
<svg width="48" height="48" viewBox="0 0 48 48" fill="none" xmlns="http://www.w3.org/2000/svg">
<rect width="48" height="48" rx="12.9619" fill="#25A2B5"/>
<path fill-rule="evenodd" clip-rule="evenodd" d="M41.633 29.3376C41.0856 31.6086 39.6151 33.0814 37.5388 34.0196C35.9244 34.7504 34.2113 35.0551 32.4666 35.1831C32.1266 35.2084 31.7841 35.2017 31.4416 35.1951C31.2855 35.1921 31.1295 35.1891 30.9736 35.1891L30.9639 35.2932C26.9385 35.2034 23.0689 34.3984 19.3895 32.7235C19.0389 32.564 18.7141 32.3581 18.3889 32.1518C18.314 32.1044 18.239 32.0568 18.1638 32.0099C16.8242 31.175 16.4027 29.8654 16.3495 28.4024C16.3166 27.4829 16.1249 26.6053 15.9003 25.7233C15.5401 24.3373 14.6334 23.3894 13.4578 22.6429C12.6316 22.1191 11.7531 21.6973 10.8757 21.2761C10.4299 21.0621 9.98444 20.8482 9.54626 20.6212C8.67245 20.1645 7.83084 19.6628 7.11502 18.9694C6.65229 18.5202 6.39397 17.9631 6.17233 17.3791C6.16931 17.371 6.16611 17.3627 6.16284 17.3542C6.13056 17.2707 6.09277 17.173 6.17233 17.0975C6.25787 17.0191 6.32654 17.0664 6.3954 17.1138C6.42057 17.1311 6.44578 17.1485 6.47184 17.1597C6.54141 17.1905 6.61002 17.2244 6.67863 17.2583C6.81161 17.3239 6.94454 17.3895 7.08433 17.433C7.63841 17.6045 8.13259 17.5827 8.58185 17.1043C9.39725 16.2335 10.4927 16.0979 11.6106 16.1144C12.3585 16.1295 13.1026 16.2254 13.8299 16.4004C14.0688 16.4558 14.235 16.396 14.3765 16.1975C15.3671 14.8086 16.7172 14.0718 18.4198 14.1392C19.6478 14.1871 20.5164 13.5784 21.352 12.8214C21.3796 12.7963 21.4058 12.7633 21.4323 12.7301C21.4993 12.6458 21.5677 12.5597 21.6627 12.5967C21.7658 12.6369 21.7779 12.7686 21.789 12.891C21.7922 12.926 21.7954 12.9602 21.8005 12.9913C22.0379 14.414 21.6815 15.7325 21.0517 16.9942C20.728 17.6289 20.3298 18.2242 19.9341 18.8157C19.8392 18.9576 19.7444 19.0993 19.6508 19.2412C19.6075 19.3072 19.5651 19.3739 19.5227 19.4406C19.4447 19.5632 19.3666 19.686 19.2832 19.8043C18.5344 20.872 18.2956 22.0094 18.7643 23.2651C18.7975 23.354 18.8303 23.4431 18.8631 23.5321C19.028 23.9802 19.1927 24.4279 19.4194 24.8495C19.4744 24.9473 19.5354 25.0416 19.6021 25.1318C20.3142 26.1209 20.9724 26.1725 21.7114 25.2141C22.2111 24.5654 22.6712 23.886 23.1311 23.207C23.3135 22.9376 23.4959 22.6683 23.6807 22.401C24.5679 21.1176 25.5136 19.8874 26.7341 18.8923C28.4278 17.5109 30.3536 16.9658 32.5198 17.2151C34.2464 17.4143 35.8967 17.8493 37.395 18.7568C39.9146 20.2835 41.2024 22.6039 41.6869 25.4432C41.9093 26.7438 41.9415 28.0467 41.6307 29.3376H41.633ZM36.891 21.3308C38.3436 22.4757 39.1822 24.0226 39.3687 25.8623C39.6599 28.7346 38.2118 30.9322 35.4788 31.8928C34.2075 32.3406 32.9009 32.5525 32.048 32.521C30.1641 32.5225 28.7864 32.399 27.4633 31.964C25.0778 31.1793 23.9824 29.6001 24.2819 27.1075C24.6892 23.6789 26.4623 21.1429 29.7411 19.9351C32.3311 18.9804 34.7608 19.6521 36.891 21.3308ZM35.1553 27.7898C35.2 27.7616 35.2447 27.7333 35.2894 27.705C36.9607 26.6485 37.529 25.3524 36.7435 23.3742C36.0921 21.7329 34.1131 21.3128 32.7848 22.4757C32.4104 22.7984 32.1588 23.2072 31.8968 23.6639C31.8274 23.5617 31.7628 23.4629 31.7003 23.3673C31.565 23.1605 31.4396 22.9689 31.2978 22.7901C30.421 21.6857 28.9901 21.4551 27.9089 22.2323C26.5895 23.1817 26.302 25.5478 27.3503 26.7923C27.816 27.3434 28.4075 27.7312 29.0208 28.0921C30.0923 28.7233 31.0724 29.4541 31.7463 30.5316C31.8713 30.7323 31.938 30.6836 32.0503 30.5174C32.2253 30.2606 32.4145 30.0139 32.6171 29.7783C33.3302 28.9439 34.242 28.3673 35.1553 27.7898Z" fill="white"/>
</svg>
